<svg xmlns="http://www.w3.org/2000/svg" width="1024" height="1024" viewBox="0 0 1024 1024">
<g>
<path d="M 432.41,758.52 L 432.91,758.86 L 433.42,760.04 L 433.60,760.71 L 433.43,762.52 L 432.43,765.89 L 431.95,767.07 L 430.86,768.72 L 430.59,769.07 L 430.06,769.57 L 429.81,769.78 L 429.33,770.01 L 429.11,770.09 L 428.73,770.03 L 428.55,769.96 L 428.31,769.60 L 428.21,769.38 L 428.14,768.70 L 428.13,768.32 L 428.28,767.32 L 428.42,766.58 L 428.33,764.93 L 427.74,762.95 L 427.36,762.34 L 427.11,761.14 L 427.06,760.57 L 427.43,759.56 L 427.68,759.09 L 428.57,758.43 L 430.40,758.00 L 431.23,758.00 M 221.90,739.63 L 223.25,740.03 L 225.53,741.36 L 226.60,742.09 L 228.29,743.96 L 229.05,744.95 L 230.07,747.21 L 230.49,748.37 L 230.80,750.86 L 230.85,752.13 L 230.39,754.70 L 230.05,755.99 L 228.76,758.50 L 225.82,762.01 L 225.17,762.61 L 224.29,763.50 L 223.92,763.90 L 223.56,764.48 L 223.44,764.74 L 223.57,765.11 L 224.24,765.54 L 224.68,765.71 L 225.95,765.66 L 227.82,765.10 L 228.20,764.89 L 228.83,764.67 L 229.13,764.58 L 229.65,764.60 L 229.90,764.64 L 230.38,764.92 L 231.11,765.63 L 231.39,765.96 L 231.71,766.49 L 231.83,766.74 L 231.83,767.18 L 231.79,767.40 L 231.45,767.84 L 230.52,768.61 L 229.79,769.15 L 227.98,769.74 L 227.04,769.96 L 225.02,769.93 L 224.00,769.84 L 222.01,769.21 L 221.04,768.82 L 219.32,767.61 L 218.54,766.96 L 216.27,765.49 L 212.91,763.74 L 211.61,763.19 L 209.48,761.78 L 208.49,761.02 L 207.00,759.20 L 206.34,758.24 L 205.50,756.02 L 205.00,752.27 L 205.00,751.29 L 205.23,749.45 L 205.39,748.55 L 205.91,746.89 L 206.21,746.09 L 207.00,744.63 L 207.43,743.93 L 208.47,742.70 L 209.02,742.11 L 210.28,741.13 L 210.94,740.68 L 212.41,739.97 L 213.16,739.66 L 214.81,739.25 L 217.45,739.00 L 219.06,739.00 M 779.63,739.19 L 783.65,740.51 L 784.59,741.02 L 785.84,741.82 L 786.35,742.19 L 786.80,742.85 L 786.92,743.17 L 786.63,743.85 L 785.42,745.07 L 784.80,745.58 L 783.77,745.86 L 783.51,745.87 L 782.93,745.71 L 781.93,745.19 L 781.20,744.74 L 779.47,744.24 L 778.57,744.05 L 776.71,744.07 L 775.79,744.15 L 774.09,744.67 L 772.00,746.00 L 771.24,746.76 L 770.34,748.78 L 769.99,749.84 L 769.91,752.12 L 769.97,753.25 L 770.69,755.38 L 770.92,755.88 L 771.52,756.78 L 772.63,757.93 L 773.26,758.42 L 774.47,759.15 L 775.07,759.48 L 776.21,759.89 L 776.77,760.06 L 777.80,760.15 L 778.30,760.16 L 779.20,759.95 L 779.62,759.81 L 780.36,759.30 L 780.70,759.02 L 781.24,758.22 L 781.48,757.79 L 781.80,756.73 L 782.00,754.82 L 782.00,753.94 L 782.07,752.72 L 782.12,752.19 L 782.37,751.57 L 782.53,751.32 L 783.05,751.13 L 784.25,751.18 L 784.74,751.25 L 785.44,751.52 L 785.75,751.70 L 786.16,752.34 L 786.34,752.72 L 786.57,753.94 L 786.80,756.62 L 787.10,761.74 L 783.03,763.37 L 781.80,763.86 L 779.72,764.48 L 778.72,764.73 L 776.90,764.88 L 776.01,764.89 L 774.21,764.55 L 773.30,764.33 L 771.27,763.52 L 770.31,763.10 L 768.66,761.92 L 767.88,761.27 L 766.61,759.72 L 766.03,758.91 L 765.16,757.10 L 764.78,756.17 L 764.33,754.19 L 764.16,753.19 L 764.15,751.15 L 764.20,750.13 L 764.64,748.14 L 764.92,747.15 L 765.83,745.30 L 767.74,742.80 L 768.73,741.81 L 771.19,740.40 L 772.48,739.79 L 775.32,739.18 L 776.75,738.97 M 558.00,748.58 L 558.08,750.79 L 558.14,751.85 L 558.35,753.66 L 558.46,754.52 L 558.80,755.95 L 558.98,756.62 L 559.45,757.69 L 559.70,758.18 L 560.32,758.90 L 560.65,759.22 L 561.42,759.61 L 561.83,759.76 L 562.77,759.84 L 564.37,759.62 L 565.25,759.40 L 566.58,758.48 L 566.88,758.20 L 567.39,757.48 L 567.63,757.10 L 568.01,756.14 L 568.19,755.63 L 568.47,754.41 L 568.59,753.76 L 568.77,752.25 L 568.85,751.45 L 568.95,749.60 L 569.00,746.43 L 569.00,745.53 L 569.01,744.03 L 569.01,743.33 L 569.05,742.21 L 569.07,741.69 L 569.15,740.89 L 569.19,740.53 L 569.33,739.99 L 569.49,739.52 L 570.08,739.14 L 571.50,739.00 L 572.12,739.00 L 572.94,739.15 L 573.29,739.30 L 573.68,740.15 L 573.76,740.44 L 573.86,741.24 L 573.91,741.68 L 573.96,742.84 L 573.98,743.48 L 573.99,745.08 L 574.00,748.05 L 574.00,749.37 L 573.93,751.69 L 573.88,752.81 L 573.71,754.75 L 573.60,755.67 L 573.31,757.27 L 573.14,758.03 L 572.71,759.31 L 572.47,759.92 L 571.89,760.94 L 571.58,761.42 L 570.83,762.21 L 567.88,763.89 L 566.87,764.24 L 565.23,764.67 L 564.45,764.84 L 563.05,764.88 L 562.36,764.86 L 560.90,764.51 L 560.14,764.29 L 558.33,763.54 L 557.17,763.04 L 555.48,761.78 L 555.10,761.42 L 554.48,760.59 L 554.19,760.15 L 553.72,759.09 L 553.51,758.54 L 553.18,757.22 L 553.04,756.52 L 552.83,754.87 L 552.74,754.01 L 552.63,752.00 L 552.55,748.50 L 552.50,739.50 L 555.25,739.18 L 558.00,738.87 M 736.93,739.15 L 737.28,739.29 L 737.68,740.10 L 737.76,740.37 L 737.86,741.12 L 737.91,741.54 L 737.96,742.63 L 737.98,743.22 L 737.99,744.72 L 738.00,747.50 L 738.00,748.40 L 738.02,749.94 L 738.03,750.67 L 738.08,751.93 L 738.13,753.12 L 738.37,754.81 L 738.51,755.56 L 738.98,756.66 L 740.00,758.00 L 740.55,758.55 L 741.85,759.41 L 743.50,760.00 L 743.91,760.00 L 745.15,759.41 L 747.00,758.00 L 747.42,757.58 L 748.02,756.66 L 748.29,756.15 L 748.63,754.81 L 748.78,754.05 L 748.92,751.93 L 748.95,751.33 L 748.98,749.94 L 749.00,747.50 L 749.00,746.45 L 749.01,744.72 L 749.01,743.92 L 749.04,742.63 L 749.06,742.03 L 749.14,741.12 L 749.18,740.70 L 749.32,740.10 L 749.48,739.56 L 750.07,739.15 L 751.50,739.00 L 752.12,739.00 L 752.94,739.15 L 753.12,739.23 L 753.39,739.51 L 753.51,739.68 L 753.68,740.21 L 753.76,740.51 L 753.87,741.35 L 753.91,741.82 L 753.96,743.05 L 753.98,743.72 L 753.99,745.42 L 754.00,748.57 L 754.00,749.93 L 753.96,752.26 L 753.93,753.36 L 753.80,755.23 L 753.73,756.11 L 753.50,757.58 L 753.37,758.27 L 753.01,759.41 L 752.81,759.95 L 752.30,760.83 L 752.02,761.24 L 751.33,761.93 L 748.45,763.58 L 747.42,764.02 L 745.70,764.56 L 744.88,764.77 L 743.39,764.88 L 742.64,764.88 L 741.11,764.56 L 740.31,764.35 L 738.48,763.60 L 737.41,763.14 L 735.83,761.83 L 735.47,761.45 L 734.87,760.55 L 734.60,760.08 L 734.14,758.95 L 733.93,758.35 L 733.61,756.94 L 733.46,756.20 L 733.26,754.48 L 733.17,753.58 L 733.06,751.51 L 733.00,747.95 L 733.00,746.84 L 733.01,745.02 L 733.01,744.17 L 733.04,742.81 L 733.06,742.18 L 733.14,741.22 L 733.18,740.78 L 733.32,740.15 L 733.48,739.58 L 734.06,739.15 L 735.50,739.00 L 736.12,739.00 M 246.00,748.74 L 246.02,750.38 L 246.03,751.16 L 246.07,752.48 L 246.12,753.72 L 246.36,755.44 L 246.50,756.21 L 246.97,757.26 L 248.03,758.53 L 248.43,758.89 L 249.14,759.38 L 249.49,759.59 L 250.19,759.79 L 250.55,759.86 L 251.34,759.80 L 252.74,759.42 L 253.55,759.14 L 254.74,758.23 L 255.27,757.69 L 255.99,755.99 L 256.14,755.50 L 256.38,754.32 L 256.49,753.69 L 256.65,752.18 L 256.72,751.38 L 256.82,749.51 L 256.90,746.25 L 256.91,745.37 L 256.94,743.92 L 256.96,743.24 L 257.01,742.15 L 257.04,741.64 L 257.13,740.86 L 257.18,740.51 L 257.33,739.98 L 257.49,739.52 L 258.08,739.14 L 259.50,739.00 L 260.12,739.00 L 260.94,739.15 L 261.12,739.23 L 261.39,739.51 L 261.51,739.68 L 261.68,740.20 L 261.76,740.50 L 261.87,741.33 L 261.91,741.79 L 261.96,743.02 L 261.98,743.68 L 261.99,745.36 L 262.00,748.48 L 262.00,749.60 L 261.99,751.47 L 261.98,752.35 L 261.93,753.81 L 261.91,754.49 L 261.81,755.62 L 261.76,756.15 L 261.60,757.03 L 261.41,757.86 L 260.77,759.12 L 259.25,761.05 L 258.34,762.06 L 256.18,763.48 L 255.06,764.09 L 252.62,764.67 L 251.39,764.85 L 248.89,764.56 L 247.66,764.30 L 245.30,763.10 L 244.29,762.46 L 242.74,760.73 L 242.03,759.78 L 241.07,757.31 L 240.86,756.64 L 240.55,755.14 L 240.41,754.36 L 240.24,752.63 L 240.17,751.74 L 240.12,749.76 L 240.18,746.50 L 240.22,745.65 L 240.29,744.25 L 240.33,743.59 L 240.42,742.53 L 240.46,742.04 L 240.58,741.28 L 240.65,740.93 L 240.83,740.41 L 241.03,739.94 L 241.69,739.50 L 243.25,739.18 L 246.00,738.87 M 628.95,739.01 L 629.81,739.01 L 631.17,739.04 L 631.81,739.06 L 632.77,739.14 L 633.21,739.18 L 633.85,739.32 L 634.42,739.48 L 634.85,740.06 L 635.00,741.50 L 635.00,742.10 L 634.87,742.91 L 634.75,743.25 L 634.10,743.65 L 633.68,743.82 L 632.16,743.95 L 631.71,743.97 L 630.58,743.99 L 628.50,744.00 L 627.72,744.00 L 626.42,744.01 L 625.82,744.02 L 624.84,744.05 L 623.94,744.10 L 622.90,744.35 L 622.48,744.51 L 622.13,745.09 L 622.00,746.50 L 622.00,747.09 L 622.13,747.89 L 622.24,748.23 L 622.80,748.64 L 623.16,748.80 L 624.45,748.94 L 624.83,748.97 L 625.77,748.99 L 627.50,749.00 L 628.15,749.00 L 629.23,749.01 L 629.74,749.02 L 630.55,749.06 L 631.31,749.11 L 632.20,749.36 L 632.56,749.53 L 632.87,750.11 L 633.00,751.50 L 633.00,752.09 L 632.87,752.89 L 632.76,753.23 L 632.19,753.64 L 631.83,753.80 L 630.53,753.94 L 630.14,753.97 L 629.19,753.99 L 627.43,754.00 L 626.75,754.00 L 625.62,754.01 L 625.09,754.01 L 624.26,754.05 L 623.48,754.10 L 622.64,754.36 L 622.30,754.53 L 622.10,755.18 L 622.18,756.75 L 622.26,757.41 L 622.50,758.30 L 622.66,758.68 L 623.33,759.16 L 623.76,759.35 L 625.24,759.57 L 625.68,759.62 L 626.76,759.69 L 628.75,759.80 L 629.43,759.83 L 630.58,759.90 L 631.12,759.94 L 632.02,760.02 L 632.86,760.11 L 633.91,760.38 L 634.35,760.54 L 634.79,761.02 L 635.00,762.05 L 635.00,762.50 L 634.76,763.11 L 634.56,763.38 L 633.60,763.70 L 633.29,763.76 L 632.48,763.85 L 632.03,763.90 L 630.89,763.95 L 630.28,763.97 L 628.76,763.99 L 626.00,764.00 L 617.00,764.00 L 617.00,739.00 L 627.12,739.00 M 383.97,739.11 L 384.27,739.19 L 384.86,739.58 L 385.16,739.82 L 385.82,740.65 L 386.16,741.13 L 386.95,742.55 L 387.38,743.35 L 388.40,745.53 L 388.95,746.72 L 390.28,749.80 L 390.64,750.63 L 391.42,752.50 L 391.83,753.46 L 392.72,755.61 L 393.18,756.72 L 394.18,759.16 L 395.83,763.19 L 395.88,763.30 L 395.72,763.50 L 395.61,763.60 L 395.17,763.76 L 393.10,764.00 L 392.49,764.00 L 391.57,763.89 L 391.15,763.81 L 390.53,763.49 L 390.25,763.31 L 389.86,762.73 L 389.41,761.50 L 389.27,760.92 L 388.91,760.13 L 388.70,759.79 L 387.98,759.38 L 387.54,759.22 L 386.14,759.07 L 385.73,759.04 L 384.73,759.01 L 382.91,759.00 L 382.23,759.00 L 381.10,759.01 L 380.56,759.02 L 379.69,759.07 L 378.87,759.12 L 377.84,759.38 L 377.41,759.55 L 376.91,760.13 L 376.41,761.50 L 376.29,761.99 L 375.97,762.72 L 375.79,763.05 L 375.30,763.49 L 375.02,763.68 L 374.28,763.89 L 372.78,764.00 L 372.29,764.00 L 371.51,763.92 L 371.15,763.87 L 370.66,763.69 L 370.45,763.58 L 370.25,763.30 L 370.18,763.14 L 370.27,762.75 L 370.30,762.66 L 370.46,762.27 L 370.56,762.04 L 370.83,761.38 L 371.13,760.66 L 372.01,758.56 L 372.49,757.43 L 373.63,754.72 L 375.53,750.25 L 376.08,748.95 L 377.01,746.78 L 377.45,745.77 L 378.20,744.11 L 378.56,743.34 L 379.17,742.13 L 379.46,741.57 L 379.98,740.73 L 380.24,740.35 L 380.71,739.82 L 380.94,739.59 L 381.41,739.30 L 383.01,739.00 L 383.35,739.00 M 421.00,742.02 L 420.89,742.80 L 420.80,743.14 L 420.40,743.57 L 420.16,743.75 L 419.35,743.92 L 417.50,744.00 L 414.00,744.00 L 414.00,764.00 L 408.00,764.00 L 408.00,744.12 L 404.25,743.81 L 403.51,743.75 L 402.41,743.57 L 401.92,743.46 L 401.26,743.16 L 400.98,742.98 L 400.67,742.50 L 400.50,741.50 L 400.50,741.04 L 400.77,740.40 L 400.99,740.12 L 402.07,739.76 L 402.41,739.69 L 403.34,739.57 L 403.85,739.51 L 405.15,739.42 L 405.85,739.38 L 407.59,739.31 L 410.75,739.22 L 421.00,738.93 M 468.25,739.10 L 469.85,739.19 L 472.60,739.70 L 473.91,740.02 L 476.11,741.00 L 478.84,743.00 L 479.50,743.65 L 480.53,745.09 L 481.01,745.83 L 481.70,747.40 L 482.00,748.20 L 482.34,749.85 L 482.47,750.68 L 482.47,752.36 L 482.43,753.20 L 482.08,754.86 L 481.87,755.68 L 481.19,757.25 L 480.81,758.03 L 479.79,759.47 L 477.89,761.44 L 477.21,762.01 L 476.01,762.81 L 475.40,763.16 L 473.98,763.58 L 473.19,763.76 L 471.05,763.92 L 470.44,763.95 L 469.01,763.98 L 466.47,764.00 L 458.10,764.00 L 458.50,739.50 L 463.00,739.18 L 464.91,739.04 M 498.00,764.00 L 492.00,764.00 L 492.00,739.00 L 498.00,739.00 M 520.95,739.01 L 521.81,739.01 L 523.17,739.04 L 523.81,739.06 L 524.77,739.14 L 525.21,739.18 L 525.85,739.32 L 526.42,739.48 L 526.85,740.06 L 527.00,741.50 L 527.00,742.10 L 526.87,742.90 L 526.75,743.24 L 526.15,743.65 L 525.76,743.81 L 524.36,743.95 L 523.94,743.97 L 522.90,743.99 L 521.00,744.00 L 520.29,744.00 L 519.11,744.01 L 518.55,744.02 L 517.66,744.06 L 516.83,744.10 L 515.86,744.35 L 515.47,744.51 L 515.14,745.08 L 515.00,746.45 L 515.00,747.01 L 515.14,747.79 L 515.26,748.13 L 515.82,748.56 L 516.17,748.75 L 517.40,748.97 L 520.25,749.20 L 521.39,749.26 L 523.01,749.43 L 523.73,749.53 L 524.65,749.84 L 525.04,750.02 L 525.48,750.56 L 525.82,751.75 L 525.89,752.28 L 525.86,752.99 L 525.79,753.30 L 525.26,753.66 L 524.91,753.81 L 523.63,753.94 L 523.25,753.97 L 522.30,753.99 L 520.57,754.00 L 519.88,754.00 L 518.74,754.01 L 518.22,754.01 L 517.37,754.05 L 516.59,754.10 L 515.71,754.38 L 515.36,754.57 L 515.09,755.28 L 515.00,757.00 L 515.00,760.00 L 522.23,760.00 L 523.45,760.01 L 524.03,760.02 L 524.98,760.06 L 525.86,760.11 L 526.94,760.33 L 527.39,760.46 L 527.80,760.93 L 528.00,762.00 L 528.00,762.46 L 527.76,763.10 L 527.56,763.37 L 526.56,763.70 L 526.24,763.76 L 525.39,763.86 L 524.92,763.90 L 523.71,763.95 L 523.06,763.97 L 521.44,763.99 L 518.50,764.00 L 509.00,764.00 L 509.00,739.00 L 519.12,739.00 M 593.40,739.15 L 595.02,739.22 L 597.55,739.41 L 598.72,739.52 L 600.48,739.82 L 601.28,740.00 L 602.48,740.47 L 603.90,741.40 L 604.47,741.93 L 605.27,743.33 L 605.61,744.07 L 605.92,745.67 L 606.01,746.47 L 605.79,747.98 L 604.82,749.78 L 604.60,750.00 L 604.34,750.43 L 604.24,750.65 L 604.25,751.10 L 604.29,751.33 L 604.58,751.86 L 605.32,752.81 L 605.78,753.31 L 606.51,755.03 L 607.00,757.77 L 607.00,758.38 L 606.86,759.44 L 606.76,759.94 L 606.39,760.80 L 606.18,761.21 L 605.55,761.89 L 605.20,762.20 L 604.27,762.72 L 603.77,762.95 L 602.51,763.32 L 601.84,763.48 L 600.21,763.71 L 599.35,763.81 L 597.32,763.93 L 593.78,764.00 L 585.00,764.00 L 585.00,738.79 M 336.00,764.00 L 330.10,764.00 L 330.50,739.50 L 333.25,739.18 L 336.00,738.87 M 655.88,739.34 L 657.38,739.57 L 659.96,740.32 L 661.17,740.74 L 663.05,741.85 L 664.92,743.85 L 665.38,744.70 L 665.85,746.58 L 666.02,747.54 L 665.93,749.47 L 665.81,750.42 L 665.19,752.18 L 663.67,754.42 L 663.16,754.93 L 662.48,755.71 L 662.20,756.07 L 661.97,756.67 L 661.91,756.97 L 662.08,757.56 L 662.74,758.62 L 663.18,759.20 L 663.88,760.18 L 664.21,760.65 L 664.70,761.42 L 664.92,761.78 L 665.21,762.36 L 665.33,762.63 L 665.40,763.05 L 665.43,763.43 L 664.87,763.81 L 663.12,764.00 L 662.54,764.00 L 661.58,763.84 L 661.13,763.72 L 660.33,763.27 L 659.94,763.00 L 659.19,762.20 L 658.00,760.50 L 657.62,759.89 L 656.89,758.92 L 656.52,758.48 L 655.78,757.84 L 655.40,757.55 L 654.63,757.20 L 653.42,757.00 L 652.89,757.00 L 652.16,757.12 L 651.83,757.21 L 651.42,757.61 L 651.25,757.86 L 651.08,758.67 L 651.00,760.50 L 651.00,761.31 L 650.92,762.41 L 650.85,762.89 L 650.54,763.46 L 650.33,763.69 L 649.63,763.91 L 648.00,764.00 L 645.00,764.00 L 645.00,739.00 L 652.75,739.00 M 688.15,739.01 L 689.07,739.02 L 690.55,739.05 L 691.24,739.07 L 692.32,739.14 L 692.81,739.18 L 693.55,739.30 L 694.21,739.44 L 694.77,739.92 L 695.00,741.08 L 695.00,741.36 L 694.53,742.47 L 694.22,743.09 L 693.24,744.70 L 692.69,745.56 L 691.33,747.48 L 689.00,750.50 L 688.17,751.51 L 686.67,753.44 L 685.95,754.37 L 684.76,756.00 L 684.22,756.77 L 683.47,757.92 L 683.00,758.92 L 683.00,759.08 L 683.43,759.36 L 683.71,759.50 L 684.64,759.71 L 685.16,759.80 L 686.53,759.92 L 689.00,760.00 L 689.67,760.00 L 690.79,760.01 L 691.32,760.02 L 692.19,760.06 L 693.00,760.11 L 694.00,760.33 L 694.42,760.47 L 694.81,760.94 L 695.00,762.00 L 695.00,762.47 L 694.74,763.10 L 694.63,763.24 L 694.27,763.46 L 694.06,763.55 L 693.44,763.70 L 693.09,763.77 L 692.14,763.86 L 691.62,763.90 L 690.29,763.95 L 689.57,763.97 L 687.77,763.99 L 684.50,764.00 L 683.45,764.00 L 681.64,763.99 L 680.78,763.98 L 679.32,763.94 L 678.64,763.92 L 677.50,763.85 L 676.96,763.81 L 676.11,763.72 L 675.32,763.61 L 674.46,763.28 L 674.13,763.10 L 674.00,762.59 L 674.00,762.49 L 674.13,762.13 L 674.22,761.93 L 674.52,761.38 L 674.85,760.79 L 675.93,759.14 L 676.53,758.26 L 678.02,756.19 L 680.57,752.84 L 687.15,744.50 L 681.07,744.20 L 680.36,744.17 L 679.18,744.10 L 678.62,744.06 L 677.72,743.98 L 676.88,743.89 L 675.90,743.59 L 675.50,743.40 L 675.15,742.81 L 675.00,741.45 L 675.00,740.84 L 675.16,740.04 L 675.24,739.87 L 675.54,739.60 L 675.72,739.48 L 676.27,739.31 L 676.58,739.23 L 677.46,739.13 L 677.95,739.09 L 679.24,739.04 L 679.94,739.02 L 681.71,739.01 L 685.00,739.00 L 686.18,739.00 M 716.35,739.51 L 717.18,739.52 L 718.53,739.55 L 719.16,739.57 L 720.14,739.65 L 720.59,739.69 L 721.26,739.82 L 721.87,739.97 L 722.44,740.49 L 722.82,741.75 L 722.90,742.28 L 722.85,743.00 L 722.76,743.31 L 722.15,743.68 L 721.74,743.82 L 720.22,743.95 L 719.77,743.97 L 718.64,743.99 L 716.57,744.00 L 715.78,744.00 L 714.47,744.01 L 713.85,744.02 L 712.87,744.05 L 712.41,744.07 L 711.70,744.15 L 711.38,744.20 L 710.91,744.35 L 710.48,744.51 L 710.13,745.09 L 710.00,746.50 L 710.00,747.09 L 710.13,747.89 L 710.24,748.23 L 710.80,748.64 L 711.16,748.80 L 712.45,748.94 L 712.83,748.97 L 713.77,748.99 L 715.50,749.00 L 716.15,749.00 L 717.23,749.01 L 717.74,749.02 L 718.55,749.06 L 719.31,749.11 L 720.20,749.36 L 720.56,749.53 L 720.87,750.11 L 721.00,751.50 L 721.00,752.09 L 720.87,752.89 L 720.76,753.23 L 720.20,753.64 L 719.84,753.80 L 718.55,753.94 L 718.17,753.97 L 717.23,753.99 L 715.50,754.00 L 714.82,754.00 L 713.70,754.01 L 713.18,754.01 L 712.34,754.05 L 711.57,754.10 L 710.71,754.39 L 710.36,754.58 L 710.09,755.28 L 710.00,757.00 L 710.00,760.00 L 717.23,760.00 L 718.45,760.01 L 719.03,760.02 L 719.98,760.06 L 720.86,760.11 L 721.94,760.33 L 722.39,760.46 L 722.80,760.93 L 723.00,762.00 L 723.00,762.47 L 722.76,763.10 L 722.56,763.37 L 721.56,763.70 L 721.24,763.76 L 720.38,763.86 L 719.91,763.90 L 718.70,763.95 L 718.04,763.97 L 716.42,763.99 L 713.47,764.00 L 703.94,764.00 L 704.50,739.50 L 714.57,739.50 M 808.41,739.00 L 809.35,739.01 L 810.85,739.04 L 811.54,739.06 L 812.59,739.13 L 813.07,739.18 L 813.77,739.31 L 814.07,739.39 L 814.48,739.61 L 814.65,739.73 L 814.84,740.06 L 815.00,741.50 L 815.00,742.05 L 814.88,742.81 L 814.80,743.15 L 814.40,743.57 L 814.15,743.75 L 813.34,743.92 L 811.50,744.00 L 808.00,744.00 L 808.00,764.00 L 802.00,764.00 L 802.00,744.00 L 797.99,744.00 L 797.00,743.90 L 796.55,743.83 L 795.87,743.57 L 795.57,743.42 L 795.14,742.97 L 794.73,742.06 L 794.59,741.52 L 794.53,740.52 L 794.78,739.56 L 794.85,739.48 L 795.77,739.34 L 796.33,739.27 L 798.06,739.16 L 799.00,739.11 L 801.30,739.04 L 805.17,739.00 L 806.39,739.00 M 310.00,760.00 L 316.67,760.00 L 317.79,760.01 L 318.32,760.02 L 319.19,760.06 L 320.00,760.11 L 321.00,760.33 L 321.42,760.47 L 321.81,760.94 L 322.00,762.00 L 322.00,762.46 L 321.77,763.09 L 321.57,763.37 L 320.62,763.69 L 320.32,763.76 L 319.51,763.86 L 319.06,763.90 L 317.92,763.95 L 317.30,763.97 L 315.78,763.99 L 313.00,764.00 L 304.00,764.00 L 304.00,739.00 L 310.00,739.00 M 365.00,742.05 L 364.88,742.81 L 364.80,743.15 L 364.40,743.57 L 364.15,743.75 L 363.34,743.92 L 361.50,744.00 L 358.00,744.00 L 358.00,764.00 L 352.00,764.00 L 352.00,744.00 L 347.73,744.00 L 346.66,743.92 L 346.19,743.85 L 345.60,743.57 L 345.35,743.40 L 345.12,742.81 L 345.00,741.50 L 345.00,739.00 L 365.00,739.00 M 284.47,739.25 L 284.92,739.45 L 285.76,740.40 L 285.97,740.70 L 286.43,741.49 L 286.67,741.93 L 287.19,743.03 L 287.47,743.63 L 288.11,745.10 L 289.22,747.75 L 290.21,750.16 L 292.23,755.03 L 292.71,756.16 L 293.52,758.10 L 294.43,760.25 L 296.03,764.00 L 292.66,764.00 L 291.79,763.86 L 291.39,763.77 L 290.71,763.43 L 290.39,763.23 L 289.86,762.66 L 289.18,761.50 L 288.93,760.95 L 288.41,760.18 L 288.12,759.84 L 287.33,759.42 L 286.88,759.25 L 285.56,759.08 L 282.68,759.00 L 281.49,759.00 L 279.81,759.08 L 279.05,759.14 L 278.03,759.42 L 277.58,759.59 L 276.96,760.18 L 276.18,761.50 L 275.79,762.35 L 274.71,763.39 L 272.52,764.00 L 271.83,764.00 L 270.74,763.83 L 270.28,763.72 L 270.00,763.42 L 270.00,763.38 L 270.10,763.06 L 270.17,762.86 L 270.40,762.25 L 270.66,761.58 L 271.50,759.51 L 271.97,758.38 L 273.13,755.59 L 275.12,750.92 L 275.71,749.54 L 276.71,747.25 L 277.18,746.17 L 277.98,744.42 L 278.36,743.60 L 279.01,742.31 L 279.32,741.72 L 279.86,740.83 L 280.12,740.43 L 280.61,739.87 L 280.84,739.62 L 281.32,739.32 L 282.92,739.00 L 283.53,739.00 M 594.33,754.00 L 592.92,754.06 L 592.32,754.12 L 591.61,754.42 L 591.33,754.62 L 591.09,755.32 L 591.00,757.00 L 591.00,757.72 L 591.09,758.68 L 591.18,759.10 L 591.61,759.58 L 591.90,759.77 L 592.92,759.94 L 595.38,760.00 L 596.71,760.00 L 598.91,759.59 L 599.39,759.46 L 600.18,759.12 L 600.53,758.94 L 601.00,758.50 L 601.25,758.19 L 601.55,757.60 L 601.67,757.31 L 601.70,756.76 L 601.67,756.22 L 600.87,755.33 L 600.36,754.92 L 598.70,754.36 L 595.38,754.00 M 464.00,744.00 L 464.00,752.34 L 464.05,754.23 L 464.09,755.14 L 464.20,756.71 L 464.26,757.43 L 464.41,758.50 L 464.67,759.33 L 464.91,759.58 L 465.70,759.85 L 466.14,759.96 L 467.29,759.95 L 467.90,759.91 L 469.36,759.63 L 470.13,759.45 L 471.87,758.89 L 472.97,758.51 L 474.62,757.38 L 475.35,756.76 L 476.32,755.28 L 476.72,754.51 L 477.03,752.84 L 477.11,752.00 L 476.83,750.30 L 476.61,749.47 L 475.77,747.91 L 475.28,747.16 L 473.91,745.90 L 473.16,745.32 L 471.31,744.51 L 468.05,744.00 M 216.21,744.18 L 213.34,745.48 L 212.80,745.85 L 211.95,746.82 L 211.56,747.34 L 211.01,748.52 L 210.77,749.12 L 210.51,750.42 L 210.42,751.08 L 210.45,752.42 L 210.49,753.09 L 210.80,754.39 L 210.99,755.02 L 211.57,756.19 L 211.90,756.75 L 212.75,757.71 L 214.32,758.81 L 215.19,759.23 L 216.71,759.69 L 217.44,759.86 L 218.76,759.79 L 219.40,759.69 L 220.64,759.09 L 221.26,758.71 L 222.55,757.55 L 223.38,756.71 L 224.38,754.89 L 224.78,753.97 L 225.00,752.09 L 225.03,751.16 L 224.59,749.38 L 224.30,748.51 L 223.32,746.99 L 222.78,746.28 L 221.38,745.17 L 220.64,744.69 L 218.95,744.16 L 218.08,743.98 M 382.98,746.01 L 382.66,746.35 L 382.49,746.57 L 382.10,747.24 L 381.70,747.98 L 380.85,749.99 L 380.45,751.00 L 379.89,752.85 L 379.78,753.26 L 379.69,753.89 L 379.77,754.44 L 379.96,754.63 L 381.07,754.86 L 381.69,754.95 L 383.18,754.99 L 383.91,754.98 L 385.14,754.82 L 385.40,754.77 L 385.76,754.63 L 385.91,754.55 L 386.00,754.37 L 386.00,754.17 L 385.90,753.56 L 385.83,753.23 L 385.62,752.41 L 385.39,751.55 L 384.75,749.61 L 384.42,748.66 L 383.77,747.10 L 383.62,746.76 L 383.37,746.30 L 383.09,746.01 M 281.02,749.50 L 280.54,750.60 L 279.91,752.55 L 279.78,752.98 L 279.66,753.64 L 279.69,754.25 L 279.77,754.39 L 280.15,754.62 L 280.37,754.72 L 280.95,754.85 L 281.57,754.97 L 283.09,754.98 L 283.84,754.95 L 285.11,754.67 L 285.38,754.58 L 285.76,754.36 L 285.91,754.25 L 286.00,753.97 L 286.00,753.83 L 285.87,753.27 L 285.79,752.96 L 285.53,752.15 L 284.39,749.22 L 282.79,745.50 M 653.49,744.00 L 652.42,744.08 L 651.95,744.16 L 651.43,744.59 L 651.22,744.88 L 651.06,745.93 L 651.00,748.50 L 651.00,749.54 L 651.07,750.96 L 651.12,751.58 L 651.39,752.31 L 651.56,752.61 L 652.16,752.88 L 653.57,753.00 L 654.27,753.00 L 655.95,752.70 L 656.76,752.51 L 658.07,751.96 L 658.61,751.68 L 659.35,750.68 L 659.66,750.13 L 659.93,748.84 L 660.00,748.18 L 659.76,746.87 L 658.80,745.20 L 658.63,745.03 L 658.07,744.73 L 657.76,744.59 L 656.98,744.35 L 654.30,744.00 M 592.25,744.09 L 591.57,744.34 L 591.30,744.51 L 591.08,745.21 L 591.00,746.94 L 591.00,747.75 L 591.33,748.89 L 591.56,749.37 L 592.45,749.89 L 592.97,750.08 L 594.54,750.03 L 595.42,749.93 L 597.80,749.36 L 598.21,749.25 L 598.83,748.96 L 599.12,748.80 L 599.50,748.39 L 599.66,748.17 L 599.81,747.62 L 599.80,746.62 L 599.74,746.19 L 599.47,745.55 L 599.30,745.26 L 598.73,744.85 L 598.39,744.67 L 597.38,744.44 L 595.25,744.19 L 594.21,744.12 L 592.84,744.08 M 561.15,733.16 L 561.82,734.75 L 561.88,735.18 L 561.87,735.83 L 561.84,736.12 L 561.62,736.52 L 561.48,736.70 L 561.01,736.89 L 560.00,737.00 L 559.59,737.00 L 558.99,736.89 L 558.72,736.82 L 558.38,736.52 L 558.24,736.35 L 558.13,735.83 L 558.10,735.54 L 558.18,734.75 L 558.27,734.13 L 558.85,733.16 L 560.00,732.50 L 560.41,732.50 M 568.18,732.78 L 568.52,733.12 L 568.78,734.02 L 568.85,734.48 L 568.63,735.41 L 568.47,735.85 L 567.87,736.53 L 566.64,737.00 L 566.25,737.00 L 565.47,736.58 L 565.11,736.32 L 564.67,735.57 L 564.48,735.08 L 564.69,734.09 L 564.87,733.63 L 565.59,732.89 L 565.99,732.57 L 566.91,732.32 M 380.53,732.42 L 380.96,732.63 L 381.57,733.35 L 381.81,734.74 L 381.70,735.31 L 381.04,736.12 L 380.67,736.46 L 379.72,736.77 L 379.24,736.85 L 378.33,736.59 L 377.91,736.38 L 377.36,735.51 L 377.19,735.06 L 377.23,734.03 L 377.80,732.80 L 378.18,732.42 L 379.13,732.17 L 379.60,732.12 M 387.53,732.42 L 387.96,732.63 L 388.57,733.35 L 388.81,734.74 L 388.70,735.31 L 388.04,736.12 L 387.67,736.46 L 386.72,736.77 L 386.24,736.85 L 385.33,736.59 L 384.91,736.38 L 384.36,735.51 L 384.19,735.06 L 384.23,734.03 L 384.80,732.80 L 385.18,732.42 L 386.13,732.17 L 386.60,732.12 M 150.01,676.75 L 150.01,679.05 L 150.05,683.02 L 150.08,684.91 L 150.18,688.13 L 150.25,689.65 L 150.44,692.22 L 150.55,693.44 L 150.85,695.46 L 151.02,696.42 L 151.44,698.01 L 151.66,698.76 L 152.23,700.01 L 154.52,703.02 L 154.93,703.41 L 155.96,704.05 L 156.50,704.35 L 157.73,704.81 L 159.00,705.22 L 161.82,705.49 L 163.23,705.53 L 165.90,705.04 L 166.53,704.87 L 167.67,704.39 L 169.10,703.44 L 170.15,702.50 L 171.65,700.42 L 171.98,699.84 L 172.51,698.49 L 172.75,697.77 L 173.14,696.04 L 173.31,695.12 L 173.56,692.91 L 173.68,691.72 L 173.83,688.89 L 173.89,687.39 L 173.96,683.83 L 174.00,677.53 L 174.00,660.00 L 186.15,660.00 L 185.82,680.25 L 185.80,681.60 L 185.76,684.08 L 185.73,685.28 L 185.68,687.48 L 185.63,689.61 L 185.47,693.15 L 185.39,694.81 L 185.14,697.53 L 185.01,698.81 L 184.63,700.91 L 184.42,701.90 L 183.88,703.56 L 183.59,704.35 L 182.84,705.74 L 182.43,706.43 L 181.44,707.75 L 179.63,709.85 L 179.05,710.49 L 177.61,711.67 L 176.85,712.24 L 175.11,713.25 L 174.22,713.73 L 172.25,714.56 L 171.25,714.95 L 169.13,715.57 L 166.98,716.14 L 162.49,716.59 L 161.38,716.64 L 159.18,716.55 L 158.09,716.47 L 156.00,716.11 L 154.96,715.88 L 152.97,715.24 L 151.99,714.89 L 150.13,713.99 L 149.22,713.52 L 147.51,712.40 L 146.68,711.82 L 145.16,710.50 L 144.42,709.82 L 143.11,708.32 L 142.47,707.55 L 141.38,705.89 L 140.87,705.04 L 140.03,703.25 L 139.09,700.44 L 139.01,700.14 L 138.87,699.20 L 138.80,698.68 L 138.67,697.33 L 138.60,696.62 L 138.48,694.93 L 138.42,694.05 L 138.32,692.08 L 138.22,690.05 L 138.09,685.41 L 138.00,678.06 L 138.00,660.00 L 150.00,660.00 M 518.00,716.10 L 512.76,715.80 L 507.52,715.50 L 495.01,699.31 L 493.29,697.09 L 490.09,693.02 L 489.33,692.05 L 487.90,690.27 L 487.21,689.40 L 485.95,687.86 L 485.35,687.13 L 484.31,685.87 L 483.82,685.29 L 483.03,684.37 L 482.67,683.95 L 482.16,683.41 L 481.75,683.06 L 481.70,683.06 L 481.60,683.39 L 481.55,683.60 L 481.46,684.34 L 481.41,684.76 L 481.33,685.86 L 481.29,686.45 L 481.22,687.87 L 481.15,689.36 L 481.06,693.10 L 481.00,699.50 L 481.00,716.00 L 469.00,716.00 L 469.00,660.00 L 479.50,660.09 L 492.50,676.79 L 505.50,693.49 L 505.77,676.74 L 506.05,660.00 L 518.00,660.00 M 356.23,660.50 L 365.87,677.23 L 367.19,679.54 L 369.65,683.73 L 370.23,684.73 L 371.33,686.57 L 371.86,687.46 L 372.82,689.05 L 373.28,689.80 L 374.07,691.09 L 374.44,691.69 L 375.05,692.64 L 375.32,693.06 L 375.70,693.61 L 376.00,693.95 L 376.03,693.95 L 376.29,693.60 L 376.45,693.37 L 376.94,692.60 L 377.21,692.17 L 377.90,691.02 L 378.27,690.41 L 379.14,688.94 L 379.59,688.17 L 380.60,686.42 L 381.12,685.51 L 382.26,683.53 L 385.98,676.92 L 395.45,659.91 L 400.48,660.21 L 405.50,660.50 L 405.50,715.50 L 399.75,715.80 L 394.00,716.10 L 393.98,699.30 L 393.96,682.50 L 386.23,696.28 L 385.31,697.92 L 383.78,700.63 L 383.05,701.90 L 381.86,703.95 L 381.29,704.90 L 380.37,706.38 L 379.93,707.05 L 379.20,708.04 L 378.85,708.48 L 378.24,709.08 L 377.95,709.34 L 377.40,709.62 L 375.61,709.78 L 374.97,709.72 L 373.86,709.25 L 373.58,709.08 L 372.99,708.58 L 372.69,708.30 L 372.03,707.52 L 371.69,707.09 L 370.91,705.98 L 370.50,705.37 L 369.54,703.85 L 369.03,703.04 L 367.85,701.06 L 365.77,697.50 L 364.81,695.85 L 363.00,692.77 L 362.12,691.28 L 360.59,688.75 L 360.24,688.16 L 359.61,687.14 L 359.31,686.65 L 358.81,685.87 L 358.58,685.50 L 358.23,684.99 L 357.91,684.55 L 357.84,684.48 L 357.71,684.64 L 357.65,684.77 L 357.54,685.32 L 357.48,685.64 L 357.38,686.55 L 357.33,687.05 L 357.25,688.30 L 357.21,688.97 L 357.14,690.54 L 357.11,691.36 L 357.07,693.22 L 357.00,699.80 L 357.00,716.00 L 346.00,716.00 L 346.00,659.90 M 871.75,660.01 L 873.64,660.01 L 877.37,660.09 L 879.20,660.14 L 882.52,660.30 L 884.10,660.40 L 886.63,660.63 L 887.19,660.69 L 888.11,660.81 L 889.12,661.02 L 890.24,661.33 L 892.35,662.19 L 893.37,662.65 L 895.25,663.79 L 896.16,664.39 L 897.79,665.79 L 898.57,666.52 L 899.94,668.14 L 900.59,668.98 L 901.67,670.80 L 902.17,671.74 L 902.94,673.73 L 903.29,674.75 L 903.73,676.89 L 904.00,680.24 L 904.00,681.82 L 903.64,684.61 L 903.39,685.96 L 902.51,688.37 L 901.99,689.55 L 900.53,691.69 L 897.65,694.74 L 896.65,695.62 L 895.07,697.17 L 894.74,697.51 L 894.29,698.04 L 894.00,698.51 L 894.00,698.59 L 894.38,699.31 L 894.63,699.74 L 895.42,701.04 L 895.85,701.74 L 896.95,703.45 L 898.82,706.30 L 899.49,707.29 L 900.75,709.19 L 901.37,710.12 L 902.45,711.75 L 902.95,712.52 L 903.72,713.70 L 904.38,714.75 L 904.52,714.99 L 904.41,715.35 L 904.28,715.51 L 903.55,715.73 L 903.09,715.83 L 901.65,715.94 L 898.56,716.00 L 892.01,716.00 L 886.76,708.02 L 881.50,700.05 L 870.00,700.00 L 870.00,716.00 L 858.00,716.00 L 858.00,660.00 M 847.00,669.94 L 819.75,670.50 L 819.75,676.37 L 819.75,682.23 L 844.00,681.90 L 844.00,693.00 L 819.50,693.00 L 819.50,705.00 L 848.00,705.00 L 848.00,716.00 L 807.00,716.00 L 807.00,660.00 L 847.00,660.00 M 714.59,668.50 L 715.38,669.67 L 716.88,671.80 L 717.61,672.82 L 718.86,674.50 L 719.45,675.27 L 720.31,676.33 L 720.50,676.55 L 720.78,676.83 L 721.03,677.00 L 721.12,677.00 L 721.74,676.33 L 722.10,675.90 L 723.16,674.50 L 723.74,673.73 L 725.11,671.80 L 727.36,668.50 L 733.01,660.00 L 740.81,660.00 L 742.65,660.06 L 743.47,660.10 L 744.55,660.27 L 745.00,660.37 L 745.40,660.65 L 745.37,661.25 L 745.32,661.34 L 745.05,661.75 L 744.89,662.00 L 744.42,662.70 L 744.16,663.09 L 743.52,664.05 L 743.18,664.55 L 742.39,665.73 L 741.56,666.95 L 739.56,669.89 L 736.25,674.74 L 727.87,686.98 L 737.43,700.90 L 738.75,702.82 L 741.15,706.36 L 742.29,708.05 L 744.19,710.91 L 744.62,711.57 L 745.36,712.70 L 745.71,713.24 L 746.25,714.09 L 746.49,714.48 L 746.80,715.02 L 747.00,715.42 L 747.00,715.50 L 746.47,715.64 L 746.12,715.71 L 745.02,715.82 L 744.41,715.88 L 742.87,715.94 L 740.25,715.98 L 733.50,715.97 L 727.60,706.95 L 726.79,705.71 L 725.25,703.41 L 724.51,702.31 L 723.22,700.45 L 722.62,699.59 L 721.72,698.37 L 721.52,698.11 L 721.24,697.76 L 720.97,697.48 L 720.92,697.45 L 720.70,697.58 L 720.57,697.68 L 720.19,698.06 L 719.79,698.48 L 718.62,699.95 L 717.99,700.77 L 716.47,702.87 L 713.99,706.52 L 707.74,716.00 L 699.49,716.00 L 697.54,715.94 L 696.67,715.90 L 695.53,715.73 L 695.05,715.63 L 694.61,715.35 L 694.47,715.18 L 694.63,714.75 L 694.68,714.66 L 694.96,714.24 L 695.12,713.99 L 695.61,713.26 L 695.88,712.87 L 696.55,711.88 L 696.91,711.36 L 697.74,710.15 L 698.61,708.88 L 700.71,705.85 L 704.19,700.83 L 705.40,699.09 L 707.61,695.86 L 708.66,694.32 L 710.41,691.70 L 710.81,691.10 L 711.49,690.06 L 711.81,689.57 L 712.30,688.79 L 712.53,688.43 L 712.82,687.93 L 713.00,687.55 L 713.00,687.51 L 712.83,687.18 L 712.72,686.98 L 712.35,686.35 L 712.14,686.00 L 711.59,685.12 L 711.29,684.65 L 710.58,683.54 L 709.83,682.38 L 707.95,679.53 L 704.75,674.75 L 703.62,673.07 L 701.48,669.91 L 700.46,668.39 L 698.69,665.76 L 698.28,665.15 L 697.56,664.08 L 697.22,663.57 L 696.66,662.73 L 696.40,662.35 L 696.03,661.78 L 695.70,661.27 L 695.55,661.03 L 695.64,660.66 L 695.77,660.49 L 696.53,660.27 L 697.00,660.17 L 698.53,660.06 L 701.86,660.00 L 708.81,660.00 M 617.00,669.94 L 589.75,670.50 L 589.75,676.37 L 589.75,682.23 L 614.00,681.90 L 614.00,693.00 L 589.50,693.00 L 589.50,705.00 L 618.00,705.00 L 618.00,716.00 L 577.00,716.00 L 577.00,660.00 L 617.00,660.00 M 953.00,671.00 L 936.00,671.00 L 936.00,716.00 L 924.00,716.00 L 924.00,671.00 L 907.00,671.00 L 907.00,660.00 L 953.00,660.00 M 458.00,669.94 L 430.50,670.50 L 430.50,682.18 L 454.50,682.50 L 454.50,692.50 L 442.25,692.78 L 430.00,693.06 L 430.00,705.00 L 459.00,705.00 L 459.00,716.00 L 418.00,716.00 L 418.00,660.00 L 458.00,660.00 M 1000.00,669.94 L 972.50,670.50 L 971.90,682.00 L 982.95,682.12 L 984.47,682.14 L 987.34,682.18 L 988.72,682.20 L 991.12,682.25 L 992.24,682.27 L 993.89,682.32 L 994.25,682.33 L 994.77,682.35 L 995.25,682.38 L 995.45,682.40 L 995.79,682.75 L 995.95,682.98 L 996.18,683.74 L 996.29,684.17 L 996.42,685.33 L 996.50,687.50 L 996.50,692.50 L 984.25,692.78 L 972.00,693.06 L 972.00,705.00 L 1001.00,705.00 L 1001.00,716.00 L 960.00,716.00 L 960.00,660.00 L 1000.00,660.00 M 335.00,669.94 L 307.50,670.50 L 306.90,682.00 L 317.95,682.12 L 319.47,682.14 L 322.34,682.18 L 323.72,682.20 L 326.12,682.25 L 327.24,682.27 L 328.89,682.32 L 329.25,682.33 L 329.77,682.35 L 330.25,682.38 L 330.45,682.40 L 330.79,682.75 L 330.95,682.98 L 331.18,683.74 L 331.29,684.17 L 331.42,685.33 L 331.50,687.50 L 331.50,692.50 L 319.25,692.78 L 307.00,693.06 L 307.00,705.00 L 336.00,705.00 L 336.00,716.00 L 295.00,716.00 L 295.00,660.00 L 335.00,660.00 M 261.00,705.00 L 288.00,705.00 L 288.00,716.00 L 249.00,716.00 L 249.00,660.00 L 261.00,660.00 M 238.00,669.94 L 210.50,670.50 L 210.50,682.18 L 234.50,682.50 L 234.80,687.75 L 235.10,693.00 L 210.00,693.00 L 210.00,705.00 L 239.00,705.00 L 239.00,716.00 L 198.00,716.00 L 198.00,660.00 L 238.00,660.00 M 104.34,660.21 L 110.41,660.50 L 122.21,687.97 L 123.02,689.85 L 124.58,693.49 L 125.34,695.28 L 126.79,698.65 L 127.49,700.30 L 128.79,703.34 L 129.42,704.82 L 130.54,707.45 L 131.07,708.70 L 131.98,710.85 L 132.40,711.85 L 133.07,713.44 L 133.37,714.15 L 133.76,715.10 L 134.00,715.72 L 134.00,715.75 L 133.49,715.83 L 133.17,715.86 L 132.11,715.92 L 131.53,715.94 L 130.07,715.98 L 127.58,716.00 L 121.16,716.00 L 118.83,709.97 L 116.50,703.95 L 104.06,704.22 L 91.62,704.50 L 87.21,715.50 L 81.10,715.80 L 80.24,715.84 L 78.68,715.84 L 77.95,715.83 L 76.75,715.73 L 76.20,715.67 L 75.46,715.49 L 75.16,715.39 L 75.00,715.13 L 75.00,715.06 L 75.24,714.38 L 75.39,713.95 L 75.92,712.61 L 76.21,711.86 L 76.99,709.94 L 77.41,708.91 L 78.42,706.48 L 78.94,705.20 L 80.14,702.34 L 80.76,700.86 L 82.12,697.64 L 82.81,696.00 L 84.30,692.50 L 86.63,687.03 L 98.26,659.91 M 46.15,660.52 L 47.97,660.54 L 50.99,660.61 L 52.42,660.66 L 54.76,660.81 L 55.86,660.89 L 57.66,661.14 L 58.51,661.28 L 59.91,661.65 L 60.58,661.85 L 61.72,662.37 L 64.90,664.57 L 65.61,665.17 L 66.78,666.58 L 67.33,667.32 L 68.16,668.96 L 68.53,669.80 L 69.02,671.58 L 69.22,672.48 L 69.37,674.34 L 69.40,675.27 L 69.20,677.13 L 69.06,678.05 L 68.51,679.83 L 68.20,680.70 L 67.30,682.34 L 65.56,684.53 L 63.28,686.81 L 65.67,688.09 L 66.76,688.67 L 68.53,690.32 L 69.35,691.21 L 70.55,693.40 L 71.07,694.56 L 71.66,697.21 L 71.79,701.57 L 71.66,703.11 L 71.01,705.73 L 70.61,706.97 L 69.36,709.05 L 68.66,710.03 L 66.73,711.69 L 63.00,713.81 L 62.69,713.95 L 61.75,714.21 L 61.23,714.34 L 59.92,714.57 L 59.22,714.69 L 57.59,714.90 L 56.74,715.00 L 54.85,715.19 L 52.92,715.37 L 48.54,715.65 L 46.30,715.77 L 41.69,715.92 L 39.40,715.98 L 35.04,716.00 L 32.93,715.99 L 29.30,715.86 L 28.47,715.81 L 27.01,715.70 L 26.32,715.64 L 25.21,715.48 L 24.71,715.40 L 24.01,715.20 L 23.72,715.09 L 23.49,714.85 L 23.46,714.75 L 23.39,714.03 L 23.36,713.58 L 23.31,712.22 L 23.29,711.47 L 23.25,709.54 L 23.23,708.51 L 23.20,706.09 L 23.19,704.83 L 23.17,702.00 L 23.17,700.54 L 23.17,697.38 L 23.23,686.98 L 23.50,660.50 L 42.29,660.50 M 772.19,660.09 L 774.13,660.15 L 777.43,660.37 L 778.99,660.49 L 781.56,660.83 L 784.60,661.47 L 785.94,661.87 L 788.54,663.18 L 789.81,663.91 L 792.12,665.74 L 793.22,666.71 L 795.02,668.88 L 796.94,672.32 L 797.37,673.47 L 797.84,676.41 L 798.01,677.94 L 797.96,681.25 L 797.87,682.89 L 797.34,686.03 L 796.02,689.96 L 795.56,690.85 L 794.51,692.45 L 793.96,693.22 L 792.70,694.56 L 792.04,695.20 L 790.55,696.29 L 789.78,696.81 L 788.03,697.67 L 787.12,698.08 L 785.09,698.72 L 784.04,699.01 L 781.70,699.44 L 780.49,699.63 L 777.81,699.86 L 773.39,700.00 L 765.08,700.00 L 764.50,715.50 L 758.96,715.79 L 757.44,715.87 L 754.84,715.79 L 754.27,715.75 L 753.42,715.63 L 753.06,715.56 L 752.71,715.38 L 752.66,715.33 L 752.57,714.68 L 752.52,714.26 L 752.43,712.94 L 752.39,712.21 L 752.31,710.30 L 752.28,709.27 L 752.21,706.85 L 752.18,705.58 L 752.12,702.71 L 752.10,701.23 L 752.06,698.00 L 752.00,687.33 L 752.00,660.00 L 768.13,660.00 M 570.80,665.25 L 570.50,670.50 L 562.27,670.79 L 554.04,671.08 L 553.77,693.29 L 553.50,715.50 L 547.96,715.79 L 546.44,715.87 L 543.84,715.79 L 543.27,715.75 L 542.42,715.63 L 542.06,715.56 L 541.71,715.38 L 541.66,715.33 L 541.57,714.79 L 541.52,714.45 L 541.43,713.38 L 541.39,712.79 L 541.31,711.25 L 541.28,710.42 L 541.21,708.47 L 541.18,707.45 L 541.12,705.16 L 541.10,703.97 L 541.06,701.39 L 541.00,692.87 L 541.00,671.08 L 524.50,670.50 L 523.90,660.00 L 571.10,660.00 M 690.00,670.00 L 662.00,670.00 L 662.00,682.00 L 673.25,682.12 L 674.80,682.13 L 677.68,682.16 L 679.06,682.16 L 681.42,682.17 L 682.50,682.17 L 684.07,682.16 L 684.40,682.15 L 684.87,682.14 L 685.25,682.12 L 685.35,682.10 L 685.54,682.51 L 685.63,682.77 L 685.78,683.65 L 685.85,684.14 L 685.94,685.37 L 686.00,687.50 L 686.00,693.00 L 662.00,693.00 L 662.00,704.95 L 690.50,705.50 L 690.50,715.50 L 670.44,715.77 L 667.68,715.81 L 662.61,715.84 L 661.40,715.85 L 659.16,715.85 L 658.08,715.84 L 656.14,715.83 L 655.21,715.83 L 653.62,715.80 L 652.87,715.79 L 651.69,715.75 L 651.15,715.73 L 650.43,715.69 L 650.14,715.66 L 649.94,715.60 L 649.91,715.57 L 649.85,714.95 L 649.83,714.56 L 649.79,713.26 L 649.77,712.53 L 649.74,710.63 L 649.73,709.62 L 649.71,707.19 L 649.70,705.92 L 649.70,703.05 L 649.70,701.57 L 649.71,698.33 L 649.78,687.58 L 650.06,660.00 L 690.00,660.00 M 36.00,692.00 L 36.00,706.00 L 46.75,706.00 L 51.13,705.72 L 52.12,705.63 L 53.74,705.42 L 54.46,705.30 L 55.37,705.05 L 56.17,704.75 L 57.48,703.78 L 58.08,703.25 L 58.95,701.94 L 59.33,701.25 L 59.68,699.72 L 59.55,697.34 L 59.44,696.89 L 59.01,696.08 L 58.77,695.69 L 58.08,694.99 L 57.71,694.66 L 56.75,694.08 L 56.24,693.80 L 55.02,693.33 L 54.38,693.10 L 52.89,692.74 L 52.11,692.58 L 50.35,692.33 L 49.43,692.22 L 47.39,692.08 L 44.03,692.00 M 103.97,674.00 L 103.57,674.65 L 103.34,675.07 L 102.70,676.42 L 102.36,677.17 L 101.57,679.05 L 100.31,682.25 L 99.87,683.38 L 99.03,685.59 L 98.62,686.67 L 97.89,688.59 L 97.54,689.50 L 96.99,690.92 L 96.48,692.25 L 96.32,692.64 L 96.34,693.19 L 96.44,693.43 L 97.21,693.72 L 97.46,693.78 L 98.17,693.86 L 98.56,693.90 L 99.56,693.95 L 100.10,693.97 L 101.45,693.99 L 103.89,694.00 L 105.01,694.00 L 107.04,693.94 L 108.01,693.91 L 109.62,693.79 L 110.35,693.72 L 111.36,693.55 L 111.77,693.47 L 112.00,693.27 L 112.00,693.09 L 111.68,692.03 L 111.48,691.40 L 110.84,689.65 L 110.49,688.71 L 109.64,686.54 L 109.20,685.42 L 108.25,683.09 L 107.77,681.93 L 106.83,679.72 L 106.37,678.65 L 105.55,676.81 L 105.16,675.96 L 104.57,674.77 L 104.44,674.52 L 104.24,674.20 L 104.05,674.00 M 765.00,671.00 L 765.00,690.00 L 772.69,690.00 L 776.29,689.58 L 777.14,689.46 L 778.66,689.13 L 779.37,688.97 L 780.45,688.58 L 781.24,688.26 L 782.58,687.40 L 783.20,686.95 L 784.22,685.88 L 784.68,685.32 L 785.36,684.09 L 785.65,683.46 L 785.98,682.12 L 786.10,681.44 L 786.08,680.04 L 786.02,679.34 L 785.64,677.93 L 785.40,677.23 L 784.64,675.86 L 783.08,673.92 L 782.40,673.24 L 781.28,672.32 L 780.72,671.92 L 779.45,671.44 L 778.75,671.25 L 776.81,671.07 L 776.25,671.04 L 774.94,671.01 L 772.58,671.00 M 870.00,671.00 L 870.00,690.00 L 878.33,690.00 L 882.13,689.59 L 883.03,689.46 L 884.60,689.14 L 885.34,688.97 L 886.42,688.60 L 887.18,688.28 L 888.46,687.37 L 889.05,686.88 L 890.00,685.67 L 890.44,685.04 L 891.05,683.64 L 891.32,682.92 L 891.59,681.40 L 891.68,680.63 L 891.59,679.08 L 891.50,678.31 L 891.04,676.82 L 890.77,676.09 L 889.94,674.74 L 888.25,672.98 L 887.75,672.58 L 886.66,672.00 L 886.09,671.74 L 884.67,671.39 L 883.90,671.25 L 881.87,671.09 L 877.87,671.00 M 36.00,670.00 L 36.00,683.00 L 45.65,683.00 L 49.55,682.66 L 50.43,682.56 L 51.87,682.30 L 52.52,682.16 L 53.32,681.85 L 54.03,681.47 L 55.10,680.73 L 55.58,680.34 L 56.22,679.48 L 56.50,679.02 L 56.81,677.91 L 56.98,675.81 L 56.99,675.26 L 56.84,674.31 L 56.73,673.85 L 56.35,673.07 L 56.13,672.69 L 55.49,672.06 L 55.13,671.76 L 54.21,671.27 L 53.72,671.05 L 52.49,670.69 L 51.84,670.53 L 50.29,670.30 L 49.47,670.19 L 47.56,670.07 L 44.28,670.00 M 508.00,497.00 L 467.00,497.00 L 467.00,457.00 L 508.00,457.00 M 557.00,497.00 L 516.00,497.00 L 516.00,457.00 L 557.00,457.00 M 508.00,448.00 L 467.00,448.00 L 467.00,408.00 L 508.00,408.00 M 557.00,448.00 L 516.00,448.00 L 516.00,408.00 L 557.00,408.00 Z" fill="rgba(0,0,0,1)"/>
<path d="M 399.83,576.25 L 399.81,574.77 L 399.77,572.07 L 399.75,570.77 L 399.71,568.40 L 399.70,567.26 L 399.66,565.20 L 399.64,564.21 L 399.59,562.43 L 399.55,560.71 L 399.43,557.98 L 399.36,556.71 L 399.18,554.70 L 399.08,553.76 L 398.81,552.24 L 398.67,551.51 L 398.29,550.25 L 398.09,549.62 L 397.57,548.38 L 396.63,546.28 L 395.78,544.45 L 393.33,540.75 L 392.00,538.92 L 388.83,535.47 L 387.19,533.81 L 383.64,530.95 L 382.74,530.29 L 380.94,529.13 L 378.25,527.69 L 377.12,527.17 L 374.87,526.46 L 374.23,526.31 L 372.64,526.06 L 371.77,525.95 L 369.52,525.77 L 368.30,525.69 L 365.16,525.56 L 364.31,525.53 L 362.39,525.48 L 361.39,525.46 L 359.16,525.42 L 358.01,525.39 L 355.43,525.36 L 354.10,525.34 L 351.15,525.30 L 349.63,525.29 L 346.27,525.25 L 340.75,525.20 L 308.00,524.90 L 308.00,436.05 L 308.00,433.38 L 308.00,428.26 L 308.00,425.74 L 308.00,420.93 L 308.00,418.57 L 308.00,414.06 L 308.00,411.84 L 308.01,407.62 L 308.01,405.54 L 308.01,401.59 L 308.01,399.66 L 308.02,395.98 L 308.02,392.36 L 308.04,385.89 L 308.05,382.78 L 308.07,377.24 L 308.09,374.58 L 308.12,369.89 L 308.14,367.65 L 308.19,363.73 L 308.21,361.85 L 308.27,358.62 L 308.31,357.08 L 308.38,354.44 L 308.42,353.19 L 308.51,351.07 L 308.56,350.06 L 308.67,348.38 L 308.73,347.58 L 308.86,346.25 L 309.00,344.98 L 309.34,343.16 L 309.98,340.81 L 310.44,339.30 L 311.63,336.37 L 312.27,334.93 L 313.78,332.16 L 314.58,330.80 L 316.39,328.22 L 317.32,326.95 L 319.41,324.57 L 320.48,323.41 L 322.82,321.26 L 324.01,320.22 L 326.57,318.33 L 327.88,317.42 L 330.65,315.81 L 335.00,313.74 L 340.50,311.50 L 421.50,311.26 L 425.53,311.25 L 433.02,311.23 L 436.68,311.23 L 443.46,311.21 L 446.77,311.21 L 452.87,311.20 L 455.83,311.20 L 461.27,311.20 L 463.91,311.21 L 468.73,311.22 L 471.06,311.22 L 475.28,311.24 L 477.32,311.25 L 480.97,311.28 L 482.73,311.29 L 485.85,311.33 L 487.34,311.34 L 489.96,311.39 L 491.20,311.41 L 493.34,311.47 L 494.35,311.50 L 496.04,311.56 L 496.84,311.59 L 498.11,311.67 L 498.70,311.71 L 499.59,311.79 L 499.99,311.84 L 500.53,311.93 L 500.75,311.98 L 500.96,312.09 L 500.94,312.26 L 500.89,312.31 L 500.44,312.65 L 500.17,312.87 L 499.29,313.55 L 498.80,313.93 L 497.53,314.93 L 496.84,315.47 L 495.18,316.77 L 494.30,317.45 L 492.28,319.03 L 491.23,319.85 L 488.87,321.69 L 487.65,322.65 L 484.98,324.73 L 483.61,325.80 L 480.65,328.12 L 479.13,329.30 L 475.90,331.82 L 474.25,333.11 L 470.78,335.82 L 469.01,337.20 L 465.31,340.09 L 463.43,341.56 L 459.54,344.60 L 455.59,347.68 L 447.20,354.23 L 434.04,364.50 L 368.71,415.50 L 377.10,416.13 L 378.26,416.21 L 380.34,416.42 L 381.35,416.52 L 383.14,416.77 L 384.87,417.03 L 387.64,417.76 L 388.93,418.16 L 391.05,419.22 L 393.85,421.32 L 394.56,421.98 L 395.72,423.13 L 396.26,423.71 L 397.13,425.01 L 397.53,425.71 L 398.15,427.58 L 398.29,428.09 L 398.54,429.31 L 398.65,429.95 L 398.85,431.45 L 398.95,432.24 L 399.11,434.08 L 399.19,435.04 L 399.32,437.27 L 399.38,438.43 L 399.48,441.09 L 399.53,442.48 L 399.61,445.63 L 399.65,447.27 L 399.72,450.97 L 399.75,452.89 L 399.81,457.18 L 399.84,459.40 L 399.90,464.34 L 400.00,472.52 L 400.50,515.55 L 403.79,522.22 L 404.70,524.07 L 406.92,527.46 L 408.09,529.10 L 410.83,532.05 L 412.25,533.47 L 415.46,535.97 L 420.78,539.16 L 425.50,541.50 L 512.00,541.50 L 598.50,541.50 L 603.22,539.16 L 605.10,538.22 L 608.54,535.97 L 610.20,534.78 L 613.17,532.05 L 614.60,530.63 L 617.08,527.46 L 620.21,522.22 L 623.50,515.55 L 624.00,472.52 L 624.03,469.62 L 624.10,464.34 L 624.13,461.78 L 624.19,457.18 L 624.22,454.95 L 624.28,450.97 L 624.31,449.05 L 624.39,445.63 L 624.43,443.99 L 624.52,441.09 L 624.57,439.70 L 624.68,437.27 L 624.75,436.10 L 624.89,434.08 L 624.97,433.11 L 625.15,431.45 L 625.24,430.66 L 625.46,429.31 L 625.58,428.67 L 625.85,427.58 L 626.13,426.54 L 626.87,425.01 L 627.27,424.30 L 628.28,423.13 L 630.15,421.32 L 631.03,420.50 L 632.95,419.22 L 633.96,418.64 L 636.36,417.76 L 637.65,417.36 L 640.86,416.77 L 641.72,416.64 L 643.65,416.42 L 646.89,416.13 L 655.28,415.50 L 574.14,352.20 L 568.56,347.84 L 557.84,339.47 L 555.21,337.41 L 550.08,333.41 L 547.55,331.42 L 542.64,327.58 L 540.21,325.68 L 535.55,322.03 L 533.25,320.23 L 528.86,316.79 L 526.70,315.10 L 522.61,311.89 L 520.60,310.31 L 516.84,307.36 L 515.00,305.91 L 511.59,303.23 L 509.93,301.93 L 506.91,299.55 L 505.44,298.39 L 502.83,296.33 L 501.58,295.34 L 499.40,293.62 L 498.37,292.80 L 496.66,291.44 L 495.87,290.80 L 494.66,289.83 L 494.11,289.39 L 493.42,288.82 L 493.00,288.45 L 493.00,288.43 L 493.58,288.40 L 493.96,288.39 L 495.28,288.36 L 496.02,288.34 L 498.03,288.31 L 499.12,288.30 L 501.80,288.27 L 503.21,288.26 L 506.51,288.23 L 508.23,288.22 L 512.11,288.20 L 514.12,288.19 L 518.54,288.16 L 520.82,288.15 L 525.75,288.13 L 528.28,288.12 L 533.68,288.10 L 536.44,288.09 L 542.27,288.08 L 545.24,288.07 L 551.47,288.05 L 554.62,288.05 L 561.21,288.04 L 564.54,288.03 L 571.44,288.02 L 574.92,288.02 L 582.10,288.01 L 604.50,288.00 L 716.00,288.00 L 716.00,388.41 L 716.00,391.43 L 716.00,397.20 L 716.00,400.05 L 716.00,405.47 L 716.00,408.14 L 716.00,413.23 L 716.00,415.74 L 715.99,420.50 L 715.99,422.84 L 715.99,427.30 L 715.99,429.48 L 715.98,433.64 L 715.98,435.67 L 715.97,439.53 L 715.97,441.43 L 715.96,445.01 L 715.95,448.53 L 715.93,454.77 L 715.91,457.77 L 715.88,463.05 L 715.86,465.58 L 715.81,470.00 L 715.79,472.10 L 715.73,475.74 L 715.70,477.46 L 715.62,480.41 L 715.58,481.81 L 715.49,484.17 L 715.45,485.28 L 715.34,487.14 L 715.28,488.01 L 715.15,489.46 L 715.08,490.14 L 714.93,491.28 L 714.85,491.82 L 714.68,492.73 L 714.05,495.07 L 713.63,496.44 L 712.59,499.08 L 712.04,500.38 L 710.77,502.86 L 710.11,504.08 L 708.60,506.40 L 707.83,507.53 L 706.10,509.68 L 705.22,510.73 L 703.28,512.70 L 702.29,513.66 L 700.15,515.43 L 699.06,516.30 L 696.72,517.87 L 693.01,520.00 L 692.10,520.46 L 690.46,521.24 L 689.67,521.61 L 688.15,522.23 L 686.63,522.80 L 683.29,523.57 L 682.39,523.73 L 680.31,524.00 L 679.22,524.13 L 676.66,524.34 L 675.31,524.44 L 672.12,524.62 L 666.46,524.88 L 664.61,524.96 L 661.50,525.11 L 660.03,525.18 L 657.57,525.33 L 656.41,525.40 L 654.48,525.58 L 653.56,525.67 L 652.03,525.89 L 650.56,526.12 L 648.27,526.81 L 644.76,528.33 L 643.45,528.97 L 640.97,530.46 L 639.76,531.24 L 637.51,532.99 L 636.41,533.89 L 634.39,535.88 L 633.42,536.89 L 631.65,539.08 L 630.80,540.20 L 629.31,542.58 L 628.60,543.79 L 627.40,546.33 L 626.83,547.61 L 625.94,550.29 L 624.96,554.44 L 624.83,555.20 L 624.51,557.05 L 624.34,558.01 L 623.99,560.05 L 623.81,561.07 L 623.47,563.07 L 623.00,565.73 L 622.66,567.72 L 621.50,571.58 L 620.84,573.49 L 619.11,577.12 L 618.17,578.90 L 615.92,582.26 L 614.73,583.89 L 612.01,586.91 L 610.60,588.37 L 607.47,590.99 L 605.87,592.24 L 602.39,594.41 L 600.61,595.43 L 596.83,597.09 L 590.89,598.94 L 590.71,598.98 L 589.98,599.06 L 589.56,599.09 L 588.32,599.17 L 587.65,599.20 L 585.92,599.27 L 585.00,599.31 L 582.79,599.37 L 581.63,599.40 L 578.95,599.46 L 577.55,599.49 L 574.40,599.55 L 572.77,599.57 L 569.16,599.62 L 567.31,599.65 L 563.26,599.69 L 561.18,599.71 L 556.69,599.76 L 554.39,599.77 L 549.47,599.81 L 546.96,599.83 L 541.62,599.86 L 538.90,599.87 L 533.15,599.90 L 530.22,599.91 L 524.07,599.93 L 520.94,599.94 L 514.40,599.95 L 511.08,599.96 L 504.15,599.97 L 493.33,599.98 L 400.16,600.00 L 399.83,576.25 Z" fill="rgba(244,65,52,1)"/>
</g>
</svg>