<svg xmlns="http://www.w3.org/2000/svg" width="90" height="90" viewBox="0 0 90 90">
<g>
<path d="M 17.00,79.00 L 16.45,78.45 L 15.59,77.12 L 15.00,75.39 L 15.00,75.07 L 14.88,74.64 L 14.79,74.45 L 14.44,74.27 L 14.24,74.20 L 13.60,74.25 L 12.25,74.56 L 11.49,74.78 L 9.43,75.14 L 6.50,75.42 L 3.50,75.50 L 3.24,45.38 L 3.22,43.89 L 3.20,41.09 L 3.19,39.73 L 3.18,37.20 L 3.17,34.73 L 3.16,30.52 L 3.17,28.53 L 3.20,25.20 L 3.22,23.65 L 3.29,21.12 L 3.33,19.94 L 3.44,18.11 L 3.50,17.27 L 3.65,16.05 L 3.74,15.50 L 3.94,14.78 L 4.29,14.17 L 4.53,13.97 L 5.15,13.74 L 5.50,13.65 L 6.37,13.65 L 6.85,13.67 L 8.05,13.89 L 10.31,14.49 L 11.33,14.80 L 12.76,15.18 L 13.39,15.33 L 14.19,15.41 L 14.52,15.40 L 14.84,15.16 L 15.00,14.45 L 15.00,14.05 L 15.59,12.84 L 17.00,11.00 L 17.47,10.53 L 18.71,9.89 L 19.10,9.75 L 20.19,9.53 L 20.80,9.43 L 22.46,9.29 L 23.38,9.22 L 25.80,9.13 L 27.12,9.09 L 30.49,9.05 L 31.39,9.04 L 33.42,9.02 L 34.47,9.02 L 36.79,9.01 L 37.99,9.00 L 40.64,9.00 L 45.00,9.00 L 46.54,9.00 L 49.36,9.00 L 50.72,9.00 L 53.21,9.01 L 54.41,9.01 L 56.58,9.02 L 57.63,9.03 L 59.51,9.05 L 61.33,9.07 L 64.20,9.13 L 65.52,9.17 L 67.54,9.29 L 68.46,9.35 L 69.81,9.53 L 70.42,9.63 L 71.29,9.89 L 73.00,11.00 L 73.55,11.55 L 74.41,12.84 L 75.00,14.45 L 75.00,14.77 L 75.16,15.16 L 75.28,15.32 L 75.81,15.41 L 76.15,15.41 L 77.24,15.18 L 79.69,14.49 L 80.55,14.24 L 81.93,13.90 L 82.58,13.76 L 83.62,13.65 L 84.09,13.62 L 84.84,13.74 L 85.69,14.16 L 85.82,14.27 L 86.04,14.77 L 86.15,15.08 L 86.33,16.04 L 86.41,16.59 L 86.55,18.09 L 86.62,18.92 L 86.73,21.05 L 86.78,22.20 L 86.85,25.04 L 86.88,26.55 L 86.93,30.17 L 86.95,32.09 L 86.97,36.58 L 86.98,44.37 L 86.98,48.38 L 86.91,55.79 L 86.89,57.57 L 86.82,60.87 L 86.79,62.47 L 86.71,65.35 L 86.67,66.74 L 86.58,69.12 L 86.53,70.25 L 86.43,72.06 L 86.38,72.88 L 86.26,74.02 L 86.09,74.90 L 85.87,75.23 L 85.20,75.63 L 84.81,75.79 L 83.64,75.81 L 82.97,75.77 L 81.09,75.41 L 80.56,75.29 L 79.35,74.98 L 77.25,74.41 L 76.83,74.29 L 76.19,74.19 L 75.90,74.17 L 75.50,74.27 L 75.32,74.34 L 75.12,74.66 L 75.00,75.38 L 75.00,75.83 L 74.41,77.11 L 73.00,79.00 L 72.53,79.47 L 71.29,80.11 L 70.90,80.25 L 69.81,80.47 L 69.20,80.57 L 67.54,80.71 L 66.62,80.78 L 64.20,80.87 L 62.88,80.91 L 59.51,80.95 L 58.61,80.96 L 56.58,80.98 L 55.53,80.98 L 53.21,80.99 L 52.01,81.00 L 49.36,81.00 L 45.00,81.00 L 43.46,81.00 L 40.64,81.00 L 39.28,81.00 L 36.79,80.99 L 35.59,80.99 L 33.42,80.98 L 32.37,80.97 L 30.49,80.95 L 28.67,80.93 L 25.80,80.87 L 24.48,80.83 L 22.46,80.71 L 21.54,80.65 L 20.19,80.47 L 19.58,80.37 L 18.71,80.11 L 17.92,79.84 M 69.00,73.12 L 69.00,72.75 L 68.67,72.10 L 68.45,71.79 L 67.65,71.24 L 67.20,70.98 L 65.91,70.53 L 65.21,70.32 L 63.41,69.96 L 62.45,69.80 L 60.12,69.53 L 58.88,69.41 L 55.98,69.23 L 54.46,69.15 L 50.98,69.06 L 45.07,69.00 L 42.99,69.00 L 39.25,69.06 L 37.45,69.10 L 34.28,69.25 L 32.76,69.33 L 30.13,69.56 L 28.88,69.69 L 26.78,70.01 L 25.80,70.18 L 24.22,70.60 L 23.49,70.81 L 22.42,71.32 L 21.94,71.59 L 21.35,72.19 L 21.00,73.21 L 21.00,73.42 L 21.11,73.76 L 21.20,73.93 L 21.60,74.19 L 21.85,74.32 L 22.69,74.51 L 23.17,74.60 L 24.60,74.73 L 25.40,74.79 L 27.56,74.87 L 28.75,74.91 L 31.80,74.96 L 32.62,74.96 L 34.46,74.98 L 35.42,74.98 L 37.54,74.99 L 38.63,74.99 L 41.04,75.00 L 45.00,75.00 L 46.43,75.00 L 49.03,75.00 L 50.29,75.00 L 52.59,74.99 L 53.69,74.99 L 55.69,74.98 L 56.66,74.97 L 58.38,74.96 L 60.04,74.94 L 62.63,74.88 L 63.81,74.84 L 65.56,74.73 L 66.35,74.67 L 67.43,74.50 L 67.90,74.41 L 68.46,74.17 L 68.69,74.04 L 68.91,73.71 L 68.98,73.54 M 19.77,65.73 L 27.04,63.59 L 26.77,44.64 L 26.50,25.69 L 17.75,22.97 L 9.00,20.24 L 9.00,44.73 L 9.00,46.16 L 9.00,48.78 L 9.00,50.05 L 9.01,52.35 L 9.01,53.47 L 9.02,55.49 L 9.03,56.46 L 9.04,58.20 L 9.06,59.88 L 9.12,62.50 L 9.16,63.69 L 9.26,65.46 L 9.32,66.25 L 9.48,67.32 L 9.56,67.79 L 9.79,68.31 L 9.91,68.51 L 10.20,68.64 L 10.75,68.54 L 10.99,68.45 L 12.00,68.11 L 12.58,67.92 L 14.12,67.44 L 15.76,66.93 M 81.00,45.00 L 81.00,42.68 L 80.99,38.64 L 80.98,36.72 L 80.94,33.43 L 80.92,31.87 L 80.86,29.26 L 80.83,28.03 L 80.74,26.05 L 80.69,25.13 L 80.57,23.71 L 80.51,23.07 L 80.35,22.15 L 80.27,21.75 L 80.08,21.28 L 79.75,21.02 L 79.58,21.02 L 78.67,21.21 L 78.14,21.33 L 76.66,21.71 L 75.87,21.92 L 74.01,22.45 L 71.00,23.35 L 63.50,25.66 L 63.24,44.58 L 62.99,63.50 L 71.24,66.15 L 72.38,66.51 L 74.51,67.18 L 75.53,67.50 L 77.30,68.04 L 78.11,68.29 L 79.31,68.65 L 80.25,68.90 L 80.30,68.90 L 80.40,68.43 L 80.45,68.11 L 80.54,67.04 L 80.59,66.44 L 80.67,64.84 L 80.71,63.98 L 80.78,61.92 L 80.81,60.84 L 80.87,58.38 L 80.90,57.10 L 80.94,54.31 L 80.98,51.45 M 63.66,19.32 L 64.40,19.09 L 65.73,18.56 L 66.37,18.29 L 67.43,17.74 L 67.92,17.47 L 68.58,16.96 L 69.00,16.32 L 69.00,16.19 L 68.76,15.96 L 68.59,15.85 L 67.95,15.67 L 67.57,15.58 L 66.47,15.44 L 65.85,15.37 L 64.20,15.26 L 63.30,15.21 L 61.03,15.14 L 59.81,15.11 L 56.84,15.06 L 55.27,15.04 L 51.54,15.01 L 45.00,15.00 L 42.59,15.00 L 38.44,15.01 L 36.47,15.02 L 33.13,15.06 L 31.55,15.08 L 28.95,15.14 L 27.73,15.17 L 25.78,15.26 L 24.88,15.31 L 23.52,15.44 L 22.90,15.51 L 22.04,15.67 L 21.67,15.76 L 21.24,15.96 L 21.00,16.32 L 21.00,16.60 L 21.36,17.11 L 21.59,17.37 L 22.37,17.85 L 22.81,18.08 L 23.97,18.52 L 24.59,18.73 L 26.08,19.12 L 27.64,19.50 L 31.53,20.12 L 33.56,20.40 L 38.10,20.78 L 40.42,20.94 L 45.21,21.08 L 47.60,21.11 L 52.24,20.96 L 54.51,20.85 L 58.59,20.39 L 59.56,20.25 L 61.33,19.92 L 62.17,19.74 M 15.00,52.50 L 15.00,45.00 L 18.00,45.00 L 21.00,45.00 L 21.00,51.88 L 21.00,52.67 L 20.99,53.99 L 20.98,54.61 L 20.94,55.63 L 20.89,56.58 L 20.65,57.78 L 20.49,58.29 L 19.97,58.85 L 18.75,59.37 L 18.13,59.54 L 16.94,59.80 L 15.75,59.99 L 15.65,59.99 L 15.46,59.40 L 15.37,59.02 L 15.22,57.79 L 15.15,57.11 L 15.06,55.41 L 15.02,54.52 M 15.00,34.50 L 15.00,33.35 L 15.18,31.76 L 15.31,31.07 L 15.85,30.31 L 16.17,30.02 L 17.20,29.98 L 19.42,30.61 L 19.69,30.71 L 20.12,31.11 L 20.31,31.35 L 20.61,32.03 L 20.74,32.40 L 20.90,33.35 L 21.00,35.11 L 21.00,36.02 L 20.93,37.26 L 20.87,37.80 L 20.56,38.43 L 20.36,38.68 L 19.66,38.91 L 18.00,39.00 L 17.28,39.00 L 16.31,38.91 L 15.90,38.82 L 15.42,38.38 L 15.22,38.08 L 15.06,37.03 L 15.01,36.41 M 70.75,59.31 L 70.39,59.22 L 69.86,58.81 L 69.63,58.55 L 69.33,57.63 L 69.20,57.10 L 69.07,55.46 L 69.00,51.93 L 69.00,45.00 L 72.00,45.00 L 75.00,45.00 L 75.00,52.50 L 75.00,53.46 L 74.99,55.05 L 74.98,55.79 L 74.92,56.96 L 74.88,57.50 L 74.74,58.32 L 74.66,58.69 L 74.42,59.20 L 74.29,59.41 L 73.91,59.66 L 73.70,59.75 L 73.16,59.78 L 72.86,59.78 L 72.12,59.64 L 71.72,59.56 M 69.00,35.12 L 69.00,34.32 L 69.09,33.14 L 69.16,32.61 L 69.43,31.87 L 69.60,31.53 L 70.12,31.09 L 71.25,30.63 L 72.16,30.39 L 73.37,30.16 L 73.89,30.11 L 74.48,30.43 L 74.73,30.68 L 74.92,31.77 L 74.96,32.10 L 74.99,32.94 L 75.00,34.50 L 75.00,35.58 L 74.94,37.03 L 74.88,37.66 L 74.58,38.38 L 74.39,38.67 L 73.69,38.91 L 72.00,39.00 L 71.30,39.00 L 70.34,38.91 L 69.93,38.83 L 69.44,38.43 L 69.24,38.17 L 69.07,37.26 L 69.01,36.73 Z" fill="rgba(254,254,254,1)"/>
</g>
</svg>